<?xml version="1.0" encoding="UTF-8"?>
<!--Generator: Apple Native CoreSVG 175.5-->
<!DOCTYPE svg
PUBLIC "-//W3C//DTD SVG 1.1//EN"
       "http://www.w3.org/Graphics/SVG/1.1/DTD/svg11.dtd">
<svg version="1.1" xmlns="http://www.w3.org/2000/svg" xmlns:xlink="http://www.w3.org/1999/xlink" width="3300" height="2200">
 <!--glyph: "uni100280.medium", point size: 100.0, font version: "18.0d11e1", template writer version: "90"-->
 <style>.monochrome-0 {fill:#000000}

.SFSymbolsPreview000000 {fill:#000000;opacity:1.0}
</style>
 <g id="Notes">
  <rect height="2200" id="artboard" style="fill:white;opacity:1" width="3300" x="0" y="0"/>
  <line style="fill:none;stroke:black;opacity:1;stroke-width:0.5;" x1="263" x2="3036" y1="292" y2="292"/>
  <text style="stroke:none;fill:black;font-family:sans-serif;font-size:13;font-weight:bold;" transform="matrix(1 0 0 1 263 322)">Weight/Scale Variations</text>
  <text style="stroke:none;fill:black;font-family:sans-serif;font-size:13;text-anchor:middle;" transform="matrix(1 0 0 1 559.711 322)">Ultralight</text>
  <text style="stroke:none;fill:black;font-family:sans-serif;font-size:13;text-anchor:middle;" transform="matrix(1 0 0 1 856.422 322)">Thin</text>
  <text style="stroke:none;fill:black;font-family:sans-serif;font-size:13;text-anchor:middle;" transform="matrix(1 0 0 1 1153.13 322)">Light</text>
  <text style="stroke:none;fill:black;font-family:sans-serif;font-size:13;text-anchor:middle;" transform="matrix(1 0 0 1 1449.84 322)">Regular</text>
  <text style="stroke:none;fill:black;font-family:sans-serif;font-size:13;text-anchor:middle;" transform="matrix(1 0 0 1 1746.56 322)">Medium</text>
  <text style="stroke:none;fill:black;font-family:sans-serif;font-size:13;text-anchor:middle;" transform="matrix(1 0 0 1 2043.27 322)">Semibold</text>
  <text style="stroke:none;fill:black;font-family:sans-serif;font-size:13;text-anchor:middle;" transform="matrix(1 0 0 1 2339.98 322)">Bold</text>
  <text style="stroke:none;fill:black;font-family:sans-serif;font-size:13;text-anchor:middle;" transform="matrix(1 0 0 1 2636.69 322)">Heavy</text>
  <text style="stroke:none;fill:black;font-family:sans-serif;font-size:13;text-anchor:middle;" transform="matrix(1 0 0 1 2933.4 322)">Black</text>
  <line style="fill:none;stroke:black;opacity:1;stroke-width:0.5;" x1="263" x2="3036" y1="1903" y2="1903"/>
  <g transform="matrix(1 0 0 1 263 1933)">
   <path d="M9.24805 0.830078C13.5547 0.830078 17.1387-2.74414 17.1387-7.05078C17.1387-11.3574 13.5449-14.9316 9.23828-14.9316C4.94141-14.9316 1.36719-11.3574 1.36719-7.05078C1.36719-2.74414 4.95117 0.830078 9.24805 0.830078ZM9.24805-0.654297C5.70312-0.654297 2.87109-3.49609 2.87109-7.05078C2.87109-10.6055 5.69336-13.4473 9.23828-13.4473C12.793-13.4473 15.6445-10.6055 15.6445-7.05078C15.6445-3.49609 12.8027-0.654297 9.24805-0.654297ZM5.6543-7.05078C5.6543-6.62109 5.95703-6.32812 6.40625-6.32812L8.50586-6.32812L8.50586-4.20898C8.50586-3.76953 8.79883-3.4668 9.22852-3.4668C9.67773-3.4668 9.9707-3.76953 9.9707-4.20898L9.9707-6.32812L12.0898-6.32812C12.5293-6.32812 12.832-6.62109 12.832-7.05078C12.832-7.49023 12.5293-7.79297 12.0898-7.79297L9.9707-7.79297L9.9707-9.90234C9.9707-10.3516 9.67773-10.6543 9.22852-10.6543C8.79883-10.6543 8.50586-10.3516 8.50586-9.90234L8.50586-7.79297L6.40625-7.79297C5.95703-7.79297 5.6543-7.49023 5.6543-7.05078Z"/>
  </g>
  <g transform="matrix(1 0 0 1 281.867 1933)">
   <path d="M11.709 2.91016C17.1582 2.91016 21.6699-1.61133 21.6699-7.05078C21.6699-12.5 17.1484-17.0117 11.6992-17.0117C6.25977-17.0117 1.74805-12.5 1.74805-7.05078C1.74805-1.61133 6.26953 2.91016 11.709 2.91016ZM11.709 1.25C7.09961 1.25 3.41797-2.44141 3.41797-7.05078C3.41797-11.6602 7.08984-15.3516 11.6992-15.3516C16.3086-15.3516 20.0098-11.6602 20.0098-7.05078C20.0098-2.44141 16.3184 1.25 11.709 1.25ZM7.17773-7.05078C7.17773-6.57227 7.50977-6.25 8.00781-6.25L10.8789-6.25L10.8789-3.36914C10.8789-2.88086 11.2109-2.53906 11.6895-2.53906C12.1777-2.53906 12.5195-2.87109 12.5195-3.36914L12.5195-6.25L15.4004-6.25C15.8887-6.25 16.2305-6.57227 16.2305-7.05078C16.2305-7.53906 15.8887-7.88086 15.4004-7.88086L12.5195-7.88086L12.5195-10.752C12.5195-11.25 12.1777-11.5918 11.6895-11.5918C11.2109-11.5918 10.8789-11.25 10.8789-10.752L10.8789-7.88086L8.00781-7.88086C7.50977-7.88086 7.17773-7.53906 7.17773-7.05078Z"/>
  </g>
  <g transform="matrix(1 0 0 1 305.646 1933)">
   <path d="M14.9707 5.66406C21.9336 5.66406 27.6953-0.0976562 27.6953-7.05078C27.6953-14.0137 21.9238-19.7754 14.9609-19.7754C8.00781-19.7754 2.25586-14.0137 2.25586-7.05078C2.25586-0.0976562 8.01758 5.66406 14.9707 5.66406ZM14.9707 3.84766C8.93555 3.84766 4.08203-1.01562 4.08203-7.05078C4.08203-13.0957 8.92578-17.9492 14.9609-17.9492C21.0059-17.9492 25.8691-13.0957 25.8691-7.05078C25.8691-1.01562 21.0156 3.84766 14.9707 3.84766ZM9.19922-7.05078C9.19922-6.5332 9.57031-6.17188 10.1172-6.17188L14.0625-6.17188L14.0625-2.2168C14.0625-1.67969 14.4336-1.29883 14.9512-1.29883C15.4883-1.29883 15.8594-1.66992 15.8594-2.2168L15.8594-6.17188L19.8145-6.17188C20.3516-6.17188 20.7324-6.5332 20.7324-7.05078C20.7324-7.59766 20.3613-7.96875 19.8145-7.96875L15.8594-7.96875L15.8594-11.9141C15.8594-12.4609 15.4883-12.8418 14.9512-12.8418C14.4336-12.8418 14.0625-12.4609 14.0625-11.9141L14.0625-7.96875L10.1172-7.96875C9.57031-7.96875 9.19922-7.59766 9.19922-7.05078Z"/>
  </g>
  <text style="stroke:none;fill:black;font-family:sans-serif;font-size:13;font-weight:bold;" transform="matrix(1 0 0 1 263 1953)">Design Variations</text>
  <text style="stroke:none;fill:black;font-family:sans-serif;font-size:13;" transform="matrix(1 0 0 1 263 1971)">Symbols are supported in up to nine weights and three scales.</text>
  <text style="stroke:none;fill:black;font-family:sans-serif;font-size:13;" transform="matrix(1 0 0 1 263 1989)">For optimal layout with text and other symbols, vertically align</text>
  <text style="stroke:none;fill:black;font-family:sans-serif;font-size:13;" transform="matrix(1 0 0 1 263 2007)">symbols with the adjacent text.</text>
  <line style="fill:none;stroke:#00AEEF;stroke-width:0.5;opacity:1.0;" x1="776" x2="776" y1="1919" y2="1933"/>
  <g transform="matrix(1 0 0 1 776 1933)">
   <path d="M3.31055 0.15625C3.82812 0.15625 4.08203-0.0390625 4.26758-0.585938L5.52734-4.0332L11.2891-4.0332L12.5488-0.585938C12.7344-0.0390625 12.9883 0.15625 13.4961 0.15625C14.0137 0.15625 14.3457-0.15625 14.3457-0.644531C14.3457-0.810547 14.3164-0.966797 14.2383-1.17188L9.6582-13.3691C9.43359-13.9648 9.0332-14.2676 8.4082-14.2676C7.80273-14.2676 7.39258-13.9746 7.17773-13.3789L2.59766-1.16211C2.51953-0.957031 2.49023-0.800781 2.49023-0.634766C2.49023-0.146484 2.80273 0.15625 3.31055 0.15625ZM6.00586-5.51758L8.37891-12.0898L8.42773-12.0898L10.8008-5.51758Z"/>
  </g>
  <line style="fill:none;stroke:#00AEEF;stroke-width:0.5;opacity:1.0;" x1="793.197" x2="793.197" y1="1919" y2="1933"/>
  <text style="stroke:none;fill:black;font-family:sans-serif;font-size:13;font-weight:bold;" transform="matrix(1 0 0 1 776 1953)">Margins</text>
  <text style="stroke:none;fill:black;font-family:sans-serif;font-size:13;" transform="matrix(1 0 0 1 776 1971)">Leading and trailing margins on the left and right side of each symbol</text>
  <text style="stroke:none;fill:black;font-family:sans-serif;font-size:13;" transform="matrix(1 0 0 1 776 1989)">can be adjusted by modifying the x-location of the margin guidelines.</text>
  <text style="stroke:none;fill:black;font-family:sans-serif;font-size:13;" transform="matrix(1 0 0 1 776 2007)">Modifications are automatically applied proportionally to all</text>
  <text style="stroke:none;fill:black;font-family:sans-serif;font-size:13;" transform="matrix(1 0 0 1 776 2025)">scales and weights.</text>
  <g transform="matrix(1 0 0 1 1289 1933)">
   <path d="M2.8418 1.86523L4.54102 3.57422C5.40039 4.44336 6.38672 4.38477 7.31445 3.35938L18.0078-8.42773L17.041-9.4043L6.42578 2.27539C6.07422 2.67578 5.74219 2.77344 5.27344 2.30469L4.10156 1.14258C3.63281 0.683594 3.74023 0.341797 4.14062-0.0195312L15.6152-10.8203L14.6387-11.7871L3.04688-0.898438C2.06055 0.0195312 1.98242 0.996094 2.8418 1.86523ZM9.25781-16.3281C8.83789-15.918 8.80859-15.3418 9.04297-14.9512C9.27734-14.5898 9.73633-14.3555 10.3809-14.5215C11.8457-14.8633 13.3691-14.9219 14.7949-13.9844L14.209-12.5293C13.8672-11.6992 14.043-11.1133 14.5801-10.5664L16.875-8.25195C17.3633-7.76367 17.7734-7.74414 18.3398-7.8418L19.4043-8.03711L20.0684-7.36328L20.0293-6.80664C19.9902-6.30859 20.1172-5.92773 20.6055-5.44922L21.3672-4.70703C21.8457-4.22852 22.4609-4.19922 22.9297-4.66797L25.8398-7.58789C26.3086-8.05664 26.2891-8.65234 25.8105-9.13086L25.0391-9.89258C24.5605-10.3711 24.1895-10.5273 23.7109-10.4883L23.1348-10.4395L22.4902-11.0742L22.7344-12.1973C22.8613-12.7637 22.7051-13.2031 22.1191-13.7891L19.9219-15.9766C16.582-19.2969 12.1484-19.2188 9.25781-16.3281ZM10.752-15.957C13.1836-17.7344 16.4746-17.4316 18.7012-15.2051L21.1328-12.793C21.3672-12.5586 21.4062-12.373 21.3379-12.0312L21.0156-10.5469L22.5195-9.0625L23.5059-9.12109C23.7598-9.13086 23.8379-9.11133 24.0332-8.91602L24.6094-8.33984L22.168-5.89844L21.5918-6.47461C21.3965-6.66992 21.3672-6.74805 21.377-7.01172L21.4453-7.98828L19.9512-9.47266L18.4277-9.21875C18.1055-9.15039 17.959-9.17969 17.7148-9.41406L15.7129-11.416C15.459-11.6504 15.4297-11.8164 15.5859-12.1875L16.4648-14.2773C14.9023-15.7324 12.8711-16.3574 10.8398-15.7617C10.6836-15.7227 10.625-15.8496 10.752-15.957Z"/>
  </g>
  <text style="stroke:none;fill:black;font-family:sans-serif;font-size:13;font-weight:bold;" transform="matrix(1 0 0 1 1289 1953)">Exporting</text>
  <text style="stroke:none;fill:black;font-family:sans-serif;font-size:13;" transform="matrix(1 0 0 1 1289 1971)">Symbols should be outlined when exporting to ensure the</text>
  <text style="stroke:none;fill:black;font-family:sans-serif;font-size:13;" transform="matrix(1 0 0 1 1289 1989)">design is preserved when submitting to Xcode.</text>
  <text id="template-version" style="stroke:none;fill:black;font-family:sans-serif;font-size:13;text-anchor:end;" transform="matrix(1 0 0 1 3036 1933)">Template v.4.0</text>
  <text style="stroke:none;fill:black;font-family:sans-serif;font-size:13;text-anchor:end;" transform="matrix(1 0 0 1 3036 1951)">Requires Xcode 14 or greater</text>
  <text id="descriptive-name" style="stroke:none;fill:black;font-family:sans-serif;font-size:13;text-anchor:end;" transform="matrix(1 0 0 1 3036 1969)">Generated from hand.thumbsup.fill</text>
  <text style="stroke:none;fill:black;font-family:sans-serif;font-size:13;text-anchor:end;" transform="matrix(1 0 0 1 3036 1987)">Typeset at 100 points</text>
  <text style="stroke:none;fill:black;font-family:sans-serif;font-size:13;" transform="matrix(1 0 0 1 263 726)">Small</text>
  <text style="stroke:none;fill:black;font-family:sans-serif;font-size:13;" transform="matrix(1 0 0 1 263 1156)">Medium</text>
  <text style="stroke:none;fill:black;font-family:sans-serif;font-size:13;" transform="matrix(1 0 0 1 263 1586)">Large</text>
 </g>
 <g id="Guides">
  <g id="H-reference" style="fill:#27AAE1;stroke:none;" transform="matrix(1 0 0 1 339 696)">
   <path d="M0.993654 0L3.63775 0L29.3281-67.1323L30.0303-67.1323L30.0303-70.459L28.1226-70.459ZM11.6885-24.4799L46.9815-24.4799L46.2315-26.7285L12.4385-26.7285ZM55.1196 0L57.7637 0L30.6382-70.459L29.4326-70.459L29.4326-67.1323Z"/>
  </g>
  <line id="Baseline-S" style="fill:none;stroke:#27AAE1;opacity:1;stroke-width:0.5;" x1="263" x2="3036" y1="696" y2="696"/>
  <line id="Capline-S" style="fill:none;stroke:#27AAE1;opacity:1;stroke-width:0.5;" x1="263" x2="3036" y1="625.541" y2="625.541"/>
  <g id="H-reference" style="fill:#27AAE1;stroke:none;" transform="matrix(1 0 0 1 339 1126)">
   <path d="M0.993654 0L3.63775 0L29.3281-67.1323L30.0303-67.1323L30.0303-70.459L28.1226-70.459ZM11.6885-24.4799L46.9815-24.4799L46.2315-26.7285L12.4385-26.7285ZM55.1196 0L57.7637 0L30.6382-70.459L29.4326-70.459L29.4326-67.1323Z"/>
  </g>
  <line id="Baseline-M" style="fill:none;stroke:#27AAE1;opacity:1;stroke-width:0.5;" x1="263" x2="3036" y1="1126" y2="1126"/>
  <line id="Capline-M" style="fill:none;stroke:#27AAE1;opacity:1;stroke-width:0.5;" x1="263" x2="3036" y1="1055.54" y2="1055.54"/>
  <g id="H-reference" style="fill:#27AAE1;stroke:none;" transform="matrix(1 0 0 1 339 1556)">
   <path d="M0.993654 0L3.63775 0L29.3281-67.1323L30.0303-67.1323L30.0303-70.459L28.1226-70.459ZM11.6885-24.4799L46.9815-24.4799L46.2315-26.7285L12.4385-26.7285ZM55.1196 0L57.7637 0L30.6382-70.459L29.4326-70.459L29.4326-67.1323Z"/>
  </g>
  <line id="Baseline-L" style="fill:none;stroke:#27AAE1;opacity:1;stroke-width:0.5;" x1="263" x2="3036" y1="1556" y2="1556"/>
  <line id="Capline-L" style="fill:none;stroke:#27AAE1;opacity:1;stroke-width:0.5;" x1="263" x2="3036" y1="1485.54" y2="1485.54"/>
  <line id="left-margin-Ultralight-S" style="fill:none;stroke:#00AEEF;stroke-width:0.5;opacity:1.0;" x1="520.216" x2="520.216" y1="600.785" y2="720.121"/>
  <line id="right-margin-Ultralight-S" style="fill:none;stroke:#00AEEF;stroke-width:0.5;opacity:1.0;" x1="599.207" x2="599.207" y1="600.785" y2="720.121"/>
  <line id="left-margin-Regular-S" style="fill:none;stroke:#00AEEF;stroke-width:0.5;opacity:1.0;" x1="1402.65" x2="1402.65" y1="600.785" y2="720.121"/>
  <line id="right-margin-Regular-S" style="fill:none;stroke:#00AEEF;stroke-width:0.5;opacity:1.0;" x1="1497.04" x2="1497.04" y1="600.785" y2="720.121"/>
  <line id="left-margin-Black-S" style="fill:none;stroke:#00AEEF;stroke-width:0.5;opacity:1.0;" x1="2879.98" x2="2879.98" y1="600.785" y2="720.121"/>
  <line id="right-margin-Black-S" style="fill:none;stroke:#00AEEF;stroke-width:0.5;opacity:1.0;" x1="2986.82" x2="2986.82" y1="600.785" y2="720.121"/>
 </g>
 <g id="Symbols">
  <g id="Black-S" transform="matrix(1 0 0 1 2879.98 696)">
   <path class="monochrome-0 SFSymbolsPreview000000" d="M30.2246-18.7012C29.9805-0.976562 44.4824 11.5723 65.3809 11.7188L71.3379 11.7676C76.6113 11.8164 81.25 11.4258 84.1309 10.791C89.1602 9.61914 92.334 6.20117 92.334 1.70898C92.334 0.292969 92.041-0.927734 91.6504-1.9043C91.5039-2.19727 91.6016-2.29492 91.6992-2.39258C94.9219-4.39453 96.582-7.22656 96.582-10.5469C96.582-12.3535 96.1426-14.1602 95.3125-15.6738C95.2148-15.8691 95.3125-16.0645 95.4102-16.1621C97.5098-17.8223 98.8281-20.6055 98.8281-23.6816C98.8281-26.0254 98.1934-28.125 97.168-29.541C97.0703-29.7363 97.0703-29.9316 97.2168-30.0293C98.6816-31.4941 99.3652-33.9355 99.3652-36.3281C99.3652-41.748 95.1172-45.9473 89.8438-45.9473L74.3164-45.9473C71.2891-45.9473 69.5801-47.3145 69.5801-49.3652C69.5801-54.7363 77.0508-65.625 77.0508-73.9258C77.0508-78.8086 73.7305-82.2754 69.043-82.2754C65.5762-82.2754 63.3301-80.4199 60.8887-75.7812C54.3945-63.2812 45.8984-52.9785 39.1602-44.0918C32.8125-35.6934 30.3711-28.7109 30.2246-18.7012ZM7.4707-18.3105C7.4707-3.66211 16.3086 7.56836 27.9785 7.56836L34.2773 7.56836C27.0996 0.976562 22.9492-8.20312 23.1445-18.7988C23.2422-28.6621 25.4395-36.3281 30.6152-44.2871L26.3672-44.2871C15.5273-44.2871 7.4707-33.0566 7.4707-18.3105Z"/>
  </g>
  <g id="Regular-S" transform="matrix(1 0 0 1 1402.65 696)">
   <path class="monochrome-0 SFSymbolsPreview000000" d="M27.9785-21.2891C27.9785-6.93359 39.1602 4.15039 57.4219 4.15039L62.7441 4.15039C67.8223 4.15039 71.6309 3.75977 73.7305 3.17383C76.8066 2.39258 79.7363 0.585938 79.7363-3.17383C79.7363-4.63867 79.3457-5.76172 78.8574-6.5918C78.5645-7.08008 78.6133-7.51953 79.1016-7.71484C81.543-8.69141 83.5449-10.9863 83.5449-14.1113C83.5449-15.8691 83.0566-17.4316 82.1777-18.5059C81.7383-19.0918 81.7871-19.6289 82.5195-20.0684C84.2285-21.0449 85.498-23.2422 85.498-25.8301C85.498-27.6367 84.9121-29.5898 83.8867-30.5176C83.252-31.1035 83.3984-31.4941 83.9844-32.0801C85.2539-33.0566 86.0352-34.8633 86.0352-37.1094C86.0352-40.8691 83.1055-43.9941 79.1992-43.9941L65.3809-43.9941C61.8652-43.9941 59.5703-45.752 59.5703-48.6816C59.5703-53.9062 66.1133-63.5254 66.1133-70.459C66.1133-74.1211 63.7695-76.2695 60.6445-76.2695C57.8613-76.2695 56.4941-74.3164 54.9805-71.3867C49.1211-60.0586 41.3574-50.8301 35.4492-42.9688C30.4199-36.2793 27.9785-30.5176 27.9785-21.2891ZM8.34961-20.9961C8.34961-9.375 15.6738 0.390625 25.4395 0.390625L31.9336 0.390625C25-4.83398 22.2168-12.5977 22.2168-21.3379C22.2168-31.0547 26.0254-38.2324 29.4922-42.4805L23.9746-42.4805C15.1855-42.4805 8.34961-33.0566 8.34961-20.9961Z"/>
  </g>
  <g id="Ultralight-S" transform="matrix(1 0 0 1 520.216 696)">
   <path class="monochrome-0 SFSymbolsPreview000000" d="M22.2569-25.0581C22.2569-12.7915 31.9854-3.34223 47.6134-3.34223L52.2091-3.34223C56.5606-3.34223 59.7335-3.59662 61.6061-4.04633C64.1827-4.69135 66.7491-6.31635 66.7491-9.5312C66.7491-10.8144 66.4493-11.7558 66.0064-12.4951C65.7135-12.9379 65.7623-13.2412 66.1144-13.4365C68.2379-14.3676 69.9674-16.163 69.9674-18.8339C69.9674-20.3647 69.5245-21.7002 68.7818-22.6836C68.3878-23.2241 68.482-23.625 69.1236-23.9736C70.6056-24.8139 71.6481-26.7842 71.6481-28.9179C71.6481-30.4521 71.1529-32.1328 70.2184-32.9697C69.6744-33.4194 69.8209-33.7646 70.4068-34.2597C71.4039-35.1455 72.0943-36.6343 72.0943-38.5625C72.0943-41.7773 69.5733-44.4482 66.212-44.4482L54.3917-44.4482C51.4664-44.4482 49.3985-45.979 49.3985-48.4546C49.3985-52.9981 55.0333-61.2549 55.0333-67.1441C55.0333-70.2613 53.0528-72.0918 50.4273-72.0918C48.0074-72.0918 46.8219-70.4566 45.5352-67.9356C40.5841-58.1968 33.8648-50.3306 28.8194-43.6045C24.4258-37.914 22.2569-32.9697 22.2569-25.0581ZM6.8965-24.7651C6.8965-14.8696 12.813-6.46625 21.1255-6.46625L28.8003-6.46625C22.1392-10.601 19.0835-17.184 19.1743-25.1069C19.3106-34.2334 22.6651-39.5947 25.1328-43.207L19.8877-43.207C12.3701-43.207 6.8965-35.1455 6.8965-24.7651Z"/>
  </g>
 </g>
</svg>
